<svg width="194.69568" zoomAndPan="magnify" viewBox="0 0 146.02176 137.05504" height="182.74005" preserveAspectRatio="xMidYMid" version="1.0" id="svg1504-dark" xmlns="http://www.w3.org/2000/svg" xmlns:inkscape="http://www.inkscape.org/namespaces/inkscape" xmlns:sodipodi="http://sodipodi.sourceforge.net/DTD/sodipodi-0.dtd">
    <defs>
        <!-- small colored glows using feDropShadow for crispness on dark backgrounds -->
        <filter id="glow-blue" x="-50%" y="-50%" width="200%" height="200%">
            <feDropShadow dx="0" dy="0" stdDeviation="6" flood-color="#8fb1ff" flood-opacity="0.25"/>
            <feDropShadow dx="0" dy="0" stdDeviation="2" flood-color="#8fb1ff" flood-opacity="0.12"/>
        </filter>

        <filter id="glow-purple" x="-50%" y="-50%" width="200%" height="200%">
            <feDropShadow dx="0" dy="0" stdDeviation="6" flood-color="#c9a9ff" flood-opacity="0.26"/>
            <feDropShadow dx="0" dy="0" stdDeviation="2" flood-color="#c9a9ff" flood-opacity="0.12"/>
        </filter>

        <filter id="glow-cyan" x="-50%" y="-50%" width="200%" height="200%">
            <feDropShadow dx="0" dy="0" stdDeviation="6" flood-color="#5fd1ff" flood-opacity="0.24"/>
            <feDropShadow dx="0" dy="0" stdDeviation="2" flood-color="#5fd1ff" flood-opacity="0.10"/>
        </filter>

        <!-- subtle general outer stroke to increase separation from dark background -->
        <style type="text/css"><![CDATA[
      .lift-stroke { stroke: rgba(255,255,255,0.06); stroke-width:0.9; stroke-linejoin:round; }
    ]]></style>
    </defs>

    <!-- NOTE: leave background transparent so you can place this over any dark surface -->
    <sodipodi:namedview id="namedview1506" pagecolor="#000000" bordercolor="#000000" borderopacity="0.25" inkscape:showpageshadow="2" inkscape:pageopacity="0.0" inkscape:pagecheckerboard="0" inkscape:deskcolor="#0b0f1a" showgrid="false"/>

    <!-- Main shapes with brighter fills and matching glows -->
    <path id="path1494" class="lift-stroke" fill="#8fb1ff" filter="url(#glow-blue)"
          d="M 6.2805664e-4,137.05505 C -0.00997194,104.74179 0.11720806,80.926783 0.08222806,62.445803 4.3349881,58.657073 21.446918,42.974173 24.848268,39.631423 c 0.91225,0.0119 93.183942,-0.0311 95.053182,-0.0571 0.0287,1.72458 -0.0534,72.723647 -0.0534,72.723647 -0.56192,0.005 -24.382482,0.24794 -24.382482,0.24794 0.0196,3.12537 0.0148,21.28198 0.0267,24.37849"
          fill-opacity="1" fill-rule="nonzero" sodipodi:nodetypes="ccccssc"/>

    <path id="path1496" class="lift-stroke" fill="#c9a9ff" filter="url(#glow-purple)"
          d="m 145.93922,0.01119333 c 0.0116,33.38033967 0.0925,79.04013967 0.0815,112.27974667 l -26.18561,0.0188 0.0531,-72.733117 -95.076072,0.0425 0.0465,-13.22253 C 34.497738,16.883203 43.280468,8.4620933 51.771308,3.3292956e-6"
          fill-opacity="1" fill-rule="nonzero" sodipodi:nodetypes="ccccccc"/>

    <path id="path1498" class="lift-stroke" fill="#5fd1ff" filter="url(#glow-cyan)"
          d="m 72.891028,64.181313 -0.0223,22.43776 c 7.89516,0.0274 15.41691,-0.0213 22.39327,-0.0747 0.0634,9.07087 0.0441,18.599997 6e-4,25.771507 -23.8965,-0.0339 -47.7504,0.14102 -70.56847,0.0712 0.007,-11.04566 0.007,-41.066437 0.006,-48.224607 17.04341,0.003 32.56549,-0.009 48.19298,0.0271 z"
          fill-opacity="1" fill-rule="nonzero" sodipodi:nodetypes="cccccccc"/>

    <!-- small accent and decorative parts (lifted a bit) -->
    <path id="path1500" fill="#bfb1ff" class="lift-stroke" filter="url(#glow-purple)"
          d="m 538.89365,270.84598 c -0.0299,8.73568 -0.0235,14.8801 -0.0448,21.67462 -0.41693,0.40494 -1.76755,2.03925 -3.08504,3.11096 -7.40833,0.01 -15.17726,-0.10476 -21.39575,-0.12325 0.0441,-7.90769 -0.0514,-16.41481 -0.0514,-24.58407 0.67222,0.0108 21.84623,-0.0238 24.57719,-0.0786 z"
          fill-opacity="1" fill-rule="nonzero" sodipodi:nodetypes="ccccccc" clip-path="url(#clipPath1603)" transform="translate(-419.05679,-158.60942)"/>

    <path id="path1502" class="lift-stroke" fill="#a8d8ff" filter="url(#glow-cyan)"
          d="m 0.12346806,39.576843 c 1.65625004,-0.0508 5.05198004,-0.0199 6.70432004,-0.0121 l 1.50391,0.004 c 1.59375,0 3.1835899,0.008 4.7734299,0.0156 1.07813,0.004 2.15625,0.004 3.23047,0.008 2.64453,0.004 5.84831,0.0303 8.49285,0.042 -10.97733,10.37107 -17.7806199,16.83487 -24.58346994,22.74112 -0.0402,-4.34347 -0.14558,-20.5778 -0.1215,-22.79838 z"
          fill-opacity="1" fill-rule="nonzero" sodipodi:nodetypes="ccccccccc"/>

    <!-- keep unused defs (clipPath) intact so file structure matches original if needed -->
    <defs>
        <clipPath clipPathUnits="userSpaceOnUse" id="clipPath1603">
            <path id="path1605" style="fill:#ff0000;fill-opacity:1;fill-rule:nonzero;stroke:none;stroke-width:0.75"
                  d="m 361.83591,270.90972 c 1.60699,1.43263 3.35146,2.71698 5.07715,3.99756 9.09416,6.74848 4.2814,3.28846 14.55029,10.38427 13.21562,9.1428 26.89337,17.55744 40.76221,25.65235 4.74396,0.80967 9.49868,1.55976 14.22803,2.44043 13.12255,2.51236 26.20504,5.3734 39.45117,7.15722 6.06415,0.47489 12.15505,0.97921 18.23437,0.46143 6.45499,-0.45223 12.86663,-1.31527 19.28467,-2.12402 12.48381,-1.42132 24.97488,-2.8589 37.55274,-3.11866 15.0405,-0.23378 30.07718,-0.0622 45.11865,-0.0103 12.0255,-0.0608 24.06308,-0.30262 36.0249,-1.66552 5.18438,-0.62157 11.30198,-1.66856 16.45463,-1.63916 2.44747,0.014 4.97722,-0.25954 7.40917,-0.0352 v -41.50048 z"/>
        </clipPath>
    </defs>
</svg>
